<svg xmlns="http://www.w3.org/2000/svg" viewBox="0 0 886 886" preserveAspectRatio="xMidYMid meet">
    <g transform="translate(0,886) scale(0.1,-0.1)" fill="#1ed760" stroke="none">
        <path
            d="M4150 8843 c-623 -45 -1197 -205 -1745 -487 -934 -479 -1692 -1313
        -2083 -2291 -195 -488 -312 -1060 -312 -1536 0 -159 15 -215 74 -273 79 -80
        57 -77 706 -74 l575 3 81 27 c210 71 366 238 426 455 20 73 22 109 27 518 7
        489 4 473 74 515 65 40 149 18 201 -53 l21 -28 5 -1657 c5 -1285 9 -1667 18
        -1702 64 -229 259 -419 478 -465 150 -32 319 -10 447 57 94 49 224 183 270
        278 79 161 71 -72 77 2457 l5 2262 21 28 c66 90 199 81 251 -17 l23 -43 0
        -1883 c0 -2102 -5 -1966 71 -2123 53 -110 167 -228 274 -283 186 -96 396 -98
        585 -7 119 58 231 171 288 290 76 158 72 54 72 1796 l0 1559 23 44 c49 100
        184 109 249 18 l23 -33 5 -1845 5 -1845 27 -80 c157 -462 723 -607 1060 -272
        83 83 127 153 166 259 l27 73 5 1567 5 1567 21 28 c52 71 136 93 201 53 70
        -42 67 -26 74 -520 6 -498 6 -498 81 -649 72 -149 211 -266 383 -322 68 -23
        83 -23 493 -27 l422 -3 0 -32 c0 -18 -7 -91 -15 -162 -140 -1210 -833 -2283
        -1885 -2920 -501 -304 -1085 -493 -1680 -545 -150 -13 -515 -13 -677 0 -1086
        89 -2124 662 -2786 1537 -328 433 -562 924 -682 1433 -64 266 -61 259 -119
        316 -55 53 -106 74 -183 74 -90 0 -198 -85 -223 -176 -18 -62 -8 -138 39 -332
        344 -1387 1332 -2522 2656 -3050 388 -155 766 -248 1195 -294 191 -20 746 -17
        930 5 1323 160 2466 859 3194 1952 451 677 689 1400 737 2232 15 266 2 324
        -86 402 -68 59 -85 61 -658 61 -574 0 -563 -1 -610 64 -22 31 -22 36 -28 481
        -6 492 -8 503 -70 629 -83 167 -218 282 -394 335 -219 67 -451 10 -621 -151
        -86 -82 -131 -152 -171 -263 l-28 -80 -5 -1560 c-5 -1477 -6 -1562 -23 -1593
        -26 -47 -72 -72 -134 -72 -54 0 -98 26 -126 74 -9 16 -13 432 -17 1856 -5
        1819 -5 1836 -26 1905 -66 225 -225 389 -444 457 -111 34 -265 32 -375 -6
        -167 -57 -297 -166 -374 -315 -82 -158 -75 0 -81 -1798 -5 -1600 -5 -1602 -26
        -1630 -63 -86 -189 -81 -244 9 -20 33 -20 55 -20 1890 0 1264 -3 1881 -11
        1933 -34 246 -155 423 -353 520 -166 81 -322 94 -486 39 -211 -71 -359 -227
        -426 -449 -18 -57 -19 -172 -24 -2327 l-5 -2267 -34 -35 c-41 -42 -89 -60
        -134 -51 -38 8 -91 46 -109 78 -10 17 -14 369 -18 1677 l-5 1655 -27 80 c-79
        232 -263 395 -497 441 -206 40 -433 -34 -579 -191 -75 -80 -114 -144 -149
        -250 l-27 -80 -5 -455 c-6 -450 -6 -455 -28 -486 -45 -63 -51 -64 -472 -64
        l-381 0 0 54 c0 132 59 480 121 714 282 1061 1035 1984 2026 2481 428 215 839
        337 1343 398 200 24 655 24 860 -1 482 -58 861 -169 1285 -376 638 -311 1162
        -769 1549 -1355 265 -401 430 -782 552 -1274 56 -228 77 -269 163 -313 132
        -69 299 -6 345 130 24 69 20 107 -34 325 -145 583 -384 1102 -717 1559 -779
        1068 -1961 1724 -3278 1818 -128 9 -478 11 -585 3z"
        ></path>
    </g>
</svg>
